<?xml version="1.0" standalone="no"?><!DOCTYPE svg PUBLIC "-//W3C//DTD SVG 1.1//EN" "http://www.w3.org/Graphics/SVG/1.1/DTD/svg11.dtd"><svg t="1503055579910" class="icon" style="" viewBox="0 0 1025 1024" version="1.1" xmlns="http://www.w3.org/2000/svg" p-id="1567" xmlns:xlink="http://www.w3.org/1999/xlink" width="32.03125" height="32"><defs><style type="text/css"></style></defs><path d="M557.932581 511.978666l456.893704-457.320388c12.459186-12.459186 12.459186-32.769365-0.085337-45.228551-12.459186-12.459186-32.769365-12.459186-45.228551 0L512.106671 467.262136l-457.405725-457.917747c-12.459186-12.459186-32.769365-12.459186-45.228551 0-12.459186 12.459186-12.459186 32.684029 0 45.228551l456.893704 457.320388-456.893704 457.405725c-12.459186 12.459186-12.459186 32.769365 0 45.228551 6.229593 6.229593 14.421934 9.301721 22.614276 9.301721s16.384683-3.072128 22.614276-9.301721l457.405725-457.917747 457.320388 457.917747c6.229593 6.229593 14.507271 9.301721 22.699612 9.301721 8.277678 0 16.384683-3.072128 22.614276-9.301721 12.544523-12.459186 12.544523-32.769365 0.085337-45.228551L557.932581 511.978666z" p-id="1568" fill="#707070"></path></svg>