<?xml version="1.0" standalone="no"?><!DOCTYPE svg PUBLIC "-//W3C//DTD SVG 1.1//EN" "http://www.w3.org/Graphics/SVG/1.1/DTD/svg11.dtd"><svg class="icon" width="200px" height="200.00px" viewBox="0 0 1024 1024" version="1.1" xmlns="http://www.w3.org/2000/svg"><path d="M512 0C229.668571 0 0 229.668571 0 512s229.668571 512 512 512 512-229.668571 512-512-229.668571-512-512-512z m0 950.857143c-241.956571 0-438.857143-196.827429-438.857143-438.857143 0-241.956571 196.900571-438.857143 438.857143-438.857143 242.029714 0 438.857143 196.900571 438.857143 438.857143 0 242.029714-196.827429 438.857143-438.857143 438.857143z" fill="#F5A623" /><path d="M659.529143 512a36.571429 36.571429 0 1 0 0-73.142857H548.571429v-17.334857l135.533714-141.531429a36.352 36.352 0 1 0-52.443429-50.468571L515.584 351.670857 392.557714 228.864a36.571429 36.571429 0 0 0-51.712 0.146286 36.571429 36.571429 0 0 0-0.585143 51.712L475.428571 416.182857V438.857143H367.104a36.571429 36.571429 0 0 0 0 73.142857H475.428571v73.142857H367.104a36.571429 36.571429 0 1 0 0 73.142857H475.428571v108.690286a36.571429 36.571429 0 1 0 73.142858 0V658.285714h110.957714a36.571429 36.571429 0 1 0 0-73.142857H548.571429V512h110.957714z" fill="#F5A623" /></svg>